<svg width="31" height="31" viewBox="0 0 31 31" fill="none" xmlns="http://www.w3.org/2000/svg">
<path d="M18.9081 12.0804C18.541 11.7111 18.1339 11.3837 17.6944 11.1043C16.5305 10.359 15.1773 9.9629 13.7952 9.9629C11.8768 9.95933 10.0363 10.7216 8.68221 12.0804L2.11284 18.6549C0.761012 20.0093 0.00121195 21.8445 1.49698e-06 23.7581C-0.00254045 27.7513 3.23251 30.9906 7.22579 30.9931C9.14121 30.9998 10.9799 30.2412 12.3336 28.886L17.7564 23.4631C17.8549 23.3654 17.91 23.2322 17.9092 23.0935C17.9075 22.8082 17.675 22.5784 17.3897 22.58H17.1831C16.0502 22.584 14.9273 22.3664 13.8778 21.9396C13.6845 21.86 13.4622 21.9049 13.3149 22.0532L9.41562 25.9576C8.20481 27.1684 6.24169 27.1684 5.03088 25.9576C3.82007 24.7468 3.82007 22.7837 5.03088 21.5729L11.6261 14.9829C12.8359 13.7746 14.7958 13.7746 16.0057 14.9829C16.821 15.7503 18.0929 15.7503 18.9082 14.9829C19.259 14.6318 19.4716 14.1661 19.5073 13.6711C19.545 13.0795 19.3268 12.5001 18.9081 12.0804Z" fill="#6A8C69"/>
<path d="M28.8706 2.11785C26.0468 -0.70595 21.4685 -0.70595 18.6447 2.11785L13.2271 7.53032C13.0783 7.67982 13.0354 7.90466 13.1186 8.09845C13.2009 8.29279 13.3931 8.41753 13.6041 8.41347H13.7951C14.9268 8.41141 16.0478 8.63069 17.0953 9.05906C17.2887 9.13865 17.5109 9.09375 17.6582 8.94546L21.5472 5.06167C22.758 3.85086 24.7211 3.85086 25.9319 5.06167C27.1427 6.27248 27.1427 8.23559 25.9319 9.44641L21.0875 14.2856L21.0462 14.3321L19.3522 16.0158C18.1423 17.2241 16.1824 17.2241 14.9726 16.0158C14.1572 15.2484 12.8854 15.2484 12.0701 16.0158C11.7171 16.3695 11.5042 16.8392 11.471 17.3379C11.4332 17.9295 11.6514 18.5089 12.0701 18.9286C12.6679 19.5289 13.3673 20.0185 14.1359 20.3747C14.2444 20.4263 14.3528 20.4676 14.4613 20.5141C14.5698 20.5606 14.6834 20.5967 14.7918 20.6381C14.9003 20.6794 15.0139 20.7155 15.1223 20.7465L15.4271 20.8291C15.6336 20.8808 15.8402 20.9221 16.052 20.9582C16.307 20.9961 16.5639 21.0203 16.8215 21.0306H17.183H17.214L17.5239 20.9944C17.6375 20.9893 17.7563 20.9634 17.8906 20.9634H18.0661L18.4225 20.9118L18.5878 20.8808L18.8873 20.8188H18.9441C20.2128 20.5002 21.3712 19.8433 22.2959 18.9183L28.8705 12.3437C31.6944 9.51995 31.6944 4.94165 28.8706 2.11785Z" fill="#6A8C69"/>
</svg>
