<svg width="19" height="32" viewBox="0 0 19 32" fill="none" xmlns="http://www.w3.org/2000/svg">
<path d="M6.27523 31.9241C6.70418 32.105 7.20293 31.9539 7.45347 31.5634L18.8533 13.6884C19.038 13.3991 19.0491 13.0337 18.8821 12.7353C18.7151 12.4359 18.396 12.2501 18.0499 12.2501H10.4416L13.2712 1.16823C13.3853 0.720546 13.1543 0.258171 12.7248 0.0759835C12.298 -0.105267 11.7961 0.046671 11.5465 0.436671L0.146659 18.3117C-0.0379551 18.601 -0.0491018 18.9663 0.117906 19.2647C0.284914 19.5641 0.604047 19.75 0.950097 19.75H8.55837L5.7288 30.8318C5.61467 31.2796 5.84564 31.7419 6.27523 31.9241Z" fill="#6A8C69"/>
</svg>
