<svg width="60" height="60" viewBox="0 0 60 60" fill="none" xmlns="http://www.w3.org/2000/svg">
<rect width="60" height="60" rx="15" fill="#010304" fill-opacity="0.5"/>
<path d="M36.9377 24.9666L38.3203 23.5561C38.6554 23.2149 38.6554 22.661 38.3203 22.3189C37.9851 21.9767 37.4434 21.9767 37.1083 22.3189L35.7257 23.7294C34.3766 22.591 32.6957 21.8472 30.8571 21.6696V20.75H32.5714C33.0454 20.75 33.4286 20.358 33.4286 19.875C33.4286 19.392 33.0454 19 32.5714 19H27.4286C26.9546 19 26.5714 19.392 26.5714 19.875C26.5714 20.358 26.9546 20.75 27.4286 20.75H29.1429V21.6696C24.5811 22.1115 21 26.042 21 30.8125C21 35.8787 25.0371 40 30 40C34.9629 40 39 35.8787 39 30.8125C39 28.5935 38.2251 26.5565 36.9377 24.9666ZM33.0857 35.0125C32.9314 35.1306 32.7506 35.1875 32.5723 35.1875C32.3117 35.1875 32.0546 35.0667 31.8857 34.8375L29.3143 31.3375C29.2029 31.1861 29.1429 31.0024 29.1429 30.8125V26C29.1429 25.5161 29.5269 25.125 30 25.125C30.4731 25.125 30.8571 25.5161 30.8571 26V30.5211L33.2571 33.7875C33.5409 34.1742 33.4646 34.7229 33.0857 35.0125Z" fill="white"/>
</svg>
