<svg width="60" height="60" viewBox="0 0 60 60" fill="none" xmlns="http://www.w3.org/2000/svg">
<rect width="60" height="60" rx="15" fill="#010304" fill-opacity="0.5"/>
<path d="M40.0496 32.409L38.0277 30.828C38.0533 30.5841 38.0753 30.2991 38.0753 29.9976C38.0753 29.696 38.0543 29.411 38.0277 29.1672L40.0514 27.5853C40.4272 27.2883 40.5299 26.7613 40.2906 26.3223L38.1881 22.6845C37.9635 22.2739 37.4713 22.0631 36.9718 22.2473L34.5861 23.2051C34.1287 22.8751 33.6494 22.5965 33.1535 22.3738L32.7906 19.8432C32.731 19.3629 32.313 19 31.8191 19H27.603C27.109 19 26.692 19.3629 26.6333 19.8359L26.2694 22.3756C25.7891 22.5919 25.3172 22.8669 24.8396 23.2069L22.4475 22.2464C21.9992 22.0732 21.463 22.2675 21.2403 22.6762L19.1351 26.3186C18.8867 26.7384 18.9893 27.2837 19.3734 27.588L21.3953 29.169C21.3632 29.4779 21.3476 29.7465 21.3476 29.9985C21.3476 30.2506 21.3632 30.5191 21.3953 30.8289L19.3715 32.4108C18.9957 32.7087 18.894 33.2357 19.1332 33.6738L21.2358 37.3116C21.4603 37.7213 21.9479 37.9339 22.452 37.7488L24.8378 36.791C25.2942 37.12 25.7735 37.3987 26.2694 37.6223L26.6324 40.1519C26.6919 40.634 27.109 40.997 27.6039 40.997H31.82C32.314 40.997 32.7319 40.634 32.7906 40.1611L33.1544 37.6223C33.6347 37.4051 34.1058 37.131 34.5842 36.79L36.9764 37.7506C37.0919 37.7955 37.212 37.8184 37.3357 37.8184C37.6913 37.8184 38.0185 37.6241 38.1835 37.3216L40.2952 33.6646C40.5299 33.2357 40.4272 32.7087 40.0496 32.409ZM29.711 33.6646C27.6891 33.6646 26.0449 32.0204 26.0449 29.9985C26.0449 27.9766 27.6891 26.3323 29.711 26.3323C31.7329 26.3323 33.3771 27.9766 33.3771 29.9985C33.3771 32.0204 31.7329 33.6646 29.711 33.6646Z" fill="white"/>
</svg>
