<svg width="60" height="60" viewBox="0 0 60 60" fill="none" xmlns="http://www.w3.org/2000/svg">
<rect width="60" height="60" rx="15" fill="#010304" fill-opacity="0.5"/>
<path d="M27.7778 20H21.1111C20.8164 20 20.5338 20.1171 20.3254 20.3254C20.1171 20.5338 20 20.8164 20 21.1111V27.7778C20 28.0724 20.1171 28.3551 20.3254 28.5634C20.5338 28.7718 20.8164 28.8889 21.1111 28.8889H27.7778C28.0724 28.8889 28.3551 28.7718 28.5634 28.5634C28.7718 28.3551 28.8889 28.0724 28.8889 27.7778V21.1111C28.8889 20.8164 28.7718 20.5338 28.5634 20.3254C28.3551 20.1171 28.0724 20 27.7778 20ZM38.8889 20H32.2222C31.9276 20 31.6449 20.1171 31.4366 20.3254C31.2282 20.5338 31.1111 20.8164 31.1111 21.1111V27.7778C31.1111 28.0724 31.2282 28.3551 31.4366 28.5634C31.6449 28.7718 31.9276 28.8889 32.2222 28.8889H38.8889C39.1836 28.8889 39.4662 28.7718 39.6746 28.5634C39.8829 28.3551 40 28.0724 40 27.7778V21.1111C40 20.8164 39.8829 20.5338 39.6746 20.3254C39.4662 20.1171 39.1836 20 38.8889 20ZM27.7778 31.1111H21.1111C20.8164 31.1111 20.5338 31.2282 20.3254 31.4366C20.1171 31.6449 20 31.9276 20 32.2222V38.8889C20 39.1836 20.1171 39.4662 20.3254 39.6746C20.5338 39.8829 20.8164 40 21.1111 40H27.7778C28.0724 40 28.3551 39.8829 28.5634 39.6746C28.7718 39.4662 28.8889 39.1836 28.8889 38.8889V32.2222C28.8889 31.9276 28.7718 31.6449 28.5634 31.4366C28.3551 31.2282 28.0724 31.1111 27.7778 31.1111ZM36.6667 32.2222H34.4444V34.4444H32.2222V36.6667H34.4444V38.8889H36.6667V36.6667H38.8889V34.4444H36.6667V32.2222Z" fill="white"/>
</svg>
